<svg width="81" height="82" viewBox="0 0 81 82" fill="none" xmlns="http://www.w3.org/2000/svg">
<path d="M40.5044 0.374969C32.4933 0.374969 24.662 2.75758 18.001 7.22152C11.3399 11.6854 6.1483 18.0302 3.08256 25.4535C0.0168178 32.8767 -0.785319 41.045 0.777581 48.9255C2.34048 56.806 6.19822 64.0447 11.863 69.7262C17.5277 75.4077 24.7451 79.2768 32.6023 80.8444C40.4595 82.4119 48.6037 81.6074 56.0051 78.5326C63.4064 75.4578 69.7325 70.2508 74.1833 63.57C78.634 56.8893 81.0096 49.0348 81.0096 41C80.9983 30.229 76.7271 19.9025 69.1334 12.2863C61.5397 4.67012 51.2436 0.386344 40.5044 0.374969ZM19.5041 68.1484C21.7581 64.6128 24.8632 61.7032 28.5333 59.6877C32.2034 57.6722 36.3202 56.6158 40.5044 56.6158C44.6886 56.6158 48.8055 57.6722 52.4756 59.6877C56.1456 61.7032 59.2508 64.6128 61.5048 68.1484C55.5005 72.8319 48.1109 75.3747 40.5044 75.3747C32.898 75.3747 25.5084 72.8319 19.5041 68.1484ZM28.0413 37.875C28.0413 35.4027 28.7723 32.986 30.1417 30.9303C31.5112 28.8747 33.4577 27.2726 35.735 26.3265C38.0124 25.3804 40.5183 25.1328 42.9359 25.6152C45.3535 26.0975 47.5742 27.288 49.3172 29.0361C51.0602 30.7843 52.2472 33.0116 52.7281 35.4363C53.209 37.8611 52.9622 40.3744 52.0189 42.6585C51.0756 44.9426 49.4781 46.8948 47.4286 48.2683C45.379 49.6419 42.9694 50.375 40.5044 50.375C37.199 50.375 34.029 49.058 31.6917 46.7138C29.3544 44.3696 28.0413 41.1902 28.0413 37.875ZM66.1162 63.8164C62.6412 58.7659 57.7549 54.8586 52.0718 52.5859C55.1245 50.1744 57.3521 46.8687 58.4448 43.1285C59.5375 39.3883 59.441 35.3995 58.1686 31.7169C56.8963 28.0343 54.5114 24.8409 51.3456 22.5808C48.1797 20.3207 44.3904 19.1061 40.5044 19.1061C36.6185 19.1061 32.8291 20.3207 29.6633 22.5808C26.4975 24.8409 24.1126 28.0343 22.8402 31.7169C21.5679 35.3995 21.4714 39.3883 22.5641 43.1285C23.6567 46.8687 25.8844 50.1744 28.9371 52.5859C23.254 54.8586 18.3677 58.7659 14.8927 63.8164C10.5017 58.8639 7.63167 52.7439 6.62829 46.1933C5.6249 39.6428 6.53092 32.941 9.23725 26.8949C11.9436 20.8488 16.3348 15.7163 21.8822 12.1153C27.4296 8.51441 33.8966 6.59859 40.5044 6.59859C47.1123 6.59859 53.5793 8.51441 59.1267 12.1153C64.6741 15.7163 69.0653 20.8488 71.7716 26.8949C74.478 32.941 75.384 39.6428 74.3806 46.1933C73.3772 52.7439 70.5072 58.8639 66.1162 63.8164Z" fill="#E1E1E6"/>
</svg>
